<?xml version="1.0" encoding="UTF-8"?>
<!DOCTYPE svg PUBLIC "-//W3C//DTD SVG 1.1//EN" "http://www.w3.org/Graphics/SVG/1.1/DTD/svg11.dtd">
<!-- Creator: CorelDRAW X8 -->
<svg xmlns="http://www.w3.org/2000/svg" xml:space="preserve" width="239.441mm" height="210.524mm" version="1.1" style="shape-rendering:geometricPrecision; text-rendering:geometricPrecision; image-rendering:optimizeQuality; fill-rule:evenodd; clip-rule:evenodd"
viewBox="0 0 7254 6378"
 xmlns:xlink="http://www.w3.org/1999/xlink">
 <defs>
  <style type="text/css">
   <![CDATA[
    .fil0 {fill:#009B4C}
    .fil1 {fill:#FEFEFE;fill-rule:nonzero}
    .fil2 {fill:#332C2B;fill-rule:nonzero}
   ]]>
  </style>
 </defs>
 <g id="图层_x0020_1">
  <metadata id="CorelCorpID_0Corel-Layer"/>
  <g id="_2128638884944">
   <rect class="fil0" x="1482" width="4289" height="4289" rx="12565" ry="12565"/>
   <path class="fil1" d="M3011 935c79,-78 206,-78 284,1 78,78 78,205 -1,283 -2,3 -780,764 -664,1334 25,122 73,206 136,254 34,26 74,43 116,50 50,9 105,8 163,-4 25,-5 50,-12 75,-20 -20,-43 -37,-87 -51,-132 -80,-254 -67,-530 76,-738 159,-232 383,-322 577,-303 88,8 170,39 240,90 71,52 127,123 161,210 71,184 42,440 -176,724 -74,96 -154,181 -238,255 35,23 73,42 111,53 105,32 230,18 366,-69 109,-69 198,-161 267,-268 120,-185 180,-412 181,-640 1,-227 -56,-452 -172,-633 -64,-101 -147,-188 -247,-254 -93,-60 -120,-184 -59,-277 60,-93 184,-119 277,-59 150,98 272,226 367,375 157,247 236,548 235,850 -2,302 -83,605 -246,856 -99,153 -228,286 -388,388 -247,157 -486,179 -697,115 -131,-40 -248,-113 -347,-207 -78,35 -156,61 -232,77 -108,21 -214,24 -313,6 -107,-20 -205,-61 -290,-127 -137,-105 -239,-268 -285,-492 -159,-785 772,-1695 774,-1698zm455 1684c56,-52 111,-112 162,-179 120,-156 147,-269 121,-335 -5,-14 -13,-25 -23,-32 -11,-8 -25,-13 -42,-14 -62,-6 -141,33 -208,130 -68,99 -69,247 -24,391 5,13 9,26 14,39z"/>
  </g>
  <g id="_2128638884240">
   <polygon class="fil2" points="465,5800 465,5710 0,5710 0,5800 182,5800 182,6372 283,6372 283,5800 "/>
   <path class="fil2" d="M1728 6041c0,-127 2,-201 -63,-266 -45,-45 -104,-70 -175,-70 -70,0 -128,25 -173,70 -66,65 -65,139 -65,266 0,128 -1,201 65,266 45,46 103,71 173,71 71,0 130,-25 175,-71 65,-65 63,-138 63,-266zm-100 0c0,133 -7,170 -39,206 -23,25 -60,40 -99,40 -39,0 -75,-15 -98,-40 -33,-36 -39,-73 -39,-206 0,-133 6,-170 39,-205 23,-25 59,-41 98,-41 39,0 76,16 99,41 32,35 39,72 39,205z"/>
   <polygon class="fil2" points="3297,5710 3191,5710 3075,6183 2943,5710 2862,5710 2729,6183 2613,5710 2508,5710 2680,6372 2768,6372 2902,5908 3036,6372 3124,6372 "/>
   <polygon class="fil2" points="4551,6372 4345,6033 4537,5710 4422,5710 4291,5947 4161,5710 4045,5710 4237,6033 4032,6372 4148,6372 4291,6118 4435,6372 "/>
   <polygon class="fil2" points="5946,6372 5946,5710 5846,5710 5656,6122 5463,5710 5363,5710 5363,6372 5463,6372 5463,5930 5619,6252 5694,6252 5846,5930 5846,6372 "/>
   <polygon class="fil2" points="7254,6372 7254,6282 6935,6282 6935,5710 6834,5710 6834,6372 "/>
  </g>
 </g>
</svg>
