<?xml version="1.0" encoding="UTF-8"?>
<!DOCTYPE svg PUBLIC "-//W3C//DTD SVG 1.0//EN" "http://www.w3.org/TR/2001/REC-SVG-20010904/DTD/svg10.dtd">
<!-- Creator: CorelDRAW X8 -->
<svg xmlns="http://www.w3.org/2000/svg" xml:space="preserve" width="372.854mm" height="82.4714mm" version="1.0" style="shape-rendering:geometricPrecision; text-rendering:geometricPrecision; image-rendering:optimizeQuality; fill-rule:evenodd; clip-rule:evenodd"
viewBox="0 0 34710 7677"
 xmlns:xlink="http://www.w3.org/1999/xlink">
 <defs>
  <style type="text/css">
   <![CDATA[
    .fil3 {fill:none}
    .fil0 {fill:#009B4C}
    .fil2 {fill:#332C2B;fill-rule:nonzero}
    .fil1 {fill:#FEFEFE;fill-rule:nonzero}
   ]]>
  </style>
 </defs>
 <g id="图层_x0020_1">
  <metadata id="CorelCorpID_0Corel-Layer"/>
  <g id="_2629369086592">
   <g id="_2128638884944">
    <path class="fil0" d="M4584 1578l0 0c1248,0 2261,1012 2261,2261l0 0c0,1248 -1013,2260 -2261,2260l0 0c-1248,0 -2261,-1012 -2261,-2260l0 0c0,-1249 1013,-2261 2261,-2261z"/>
    <path class="fil1" d="M3935 2564c83,-82 217,-82 299,1 83,82 83,216 0,298 -3,3 -823,805 -701,1406 27,129 77,218 144,268 36,27 78,45 122,53 53,9 111,8 172,-4 26,-6 53,-13 79,-22 -21,-45 -39,-91 -54,-139 -84,-267 -70,-558 80,-778 168,-244 404,-339 609,-319 92,8 179,41 253,95 74,55 133,129 169,221 75,194 45,464 -185,763 -78,102 -163,191 -251,269 37,24 77,45 117,56 111,34 242,19 386,-73 115,-73 209,-169 281,-282 127,-195 190,-434 191,-675 1,-239 -59,-476 -181,-667 -68,-107 -155,-198 -261,-268 -98,-63 -126,-194 -62,-292 63,-98 194,-125 292,-62 158,103 287,238 387,395 165,261 249,578 248,896 -2,319 -88,638 -260,903 -104,161 -240,301 -409,409 -260,165 -512,188 -734,121 -138,-42 -262,-119 -366,-218 -82,37 -165,64 -245,81 -114,22 -225,25 -330,6 -112,-21 -216,-64 -305,-134 -145,-111 -252,-282 -301,-518 -167,-828 814,-1787 816,-1790l0 0 0 0zm480 1775c59,-55 117,-118 170,-189 127,-164 155,-283 128,-353 -5,-15 -14,-26 -24,-34 -12,-8 -27,-13 -44,-15 -66,-6 -149,35 -220,137 -71,105 -72,261 -25,413 5,13 9,27 15,41l0 0z"/>
   </g>
   <g id="_2128638884240">
    <polygon class="fil2" points="11525,3097 11525,2820 10096,2820 10096,3097 10656,3097 10656,4855 10966,4855 10966,3097 "/>
    <path class="fil2" d="M15406 3837c0,-390 6,-617 -193,-817 -139,-139 -320,-215 -538,-215 -215,0 -393,76 -532,215 -203,200 -199,427 -199,817 0,394 -4,617 199,818 139,141 317,217 532,217 218,0 399,-76 538,-217 199,-201 193,-424 193,-818zm-307 0c0,409 -21,523 -120,633 -71,78 -184,123 -304,123 -120,0 -230,-45 -301,-123 -102,-110 -120,-224 -120,-633 0,-408 18,-522 120,-630 71,-76 181,-126 301,-126 120,0 233,50 304,126 99,108 120,222 120,630z"/>
    <polygon class="fil2" points="20227,2820 19902,2820 19545,4274 19139,2820 18891,2820 18482,4274 18125,2820 17802,2820 18331,4855 18602,4855 19014,3429 19425,4855 19696,4855 "/>
    <polygon class="fil2" points="24081,4855 23447,3813 24038,2820 23684,2820 23282,3549 22882,2820 22526,2820 23115,3813 22486,4855 22842,4855 23282,4074 23724,4855 "/>
    <polygon class="fil2" points="28366,4855 28366,2820 28059,2820 27476,4086 26883,2820 26575,2820 26575,4855 26883,4855 26883,3497 27362,4485 27593,4485 28059,3497 28059,4855 "/>
    <polygon class="fil2" points="32386,4855 32386,4578 31406,4578 31406,2820 31096,2820 31096,4855 "/>
   </g>
  </g>
  <rect class="fil3" width="34710" height="7677"/>
 </g>
</svg>
