<?xml version="1.0" encoding="UTF-8"?>
<!DOCTYPE svg PUBLIC "-//W3C//DTD SVG 1.0//EN" "http://www.w3.org/TR/2001/REC-SVG-20010904/DTD/svg10.dtd">
<!-- Creator: CorelDRAW X8 -->
<svg xmlns="http://www.w3.org/2000/svg" xml:space="preserve" width="343.747mm" height="82.4714mm" version="1.0" style="shape-rendering:geometricPrecision; text-rendering:geometricPrecision; image-rendering:optimizeQuality; fill-rule:evenodd; clip-rule:evenodd"
viewBox="0 0 31814 7633"
 xmlns:xlink="http://www.w3.org/1999/xlink">
 <defs>
  <style type="text/css">
   <![CDATA[
    .fil3 {fill:none}
    .fil0 {fill:#009B4C}
    .fil2 {fill:#B6B6B7;fill-rule:nonzero}
    .fil1 {fill:#FEFEFE;fill-rule:nonzero}
   ]]>
  </style>
 </defs>
 <g id="图层_x0020_1">
  <metadata id="CorelCorpID_0Corel-Layer"/>
  <g id="_2629374010464">
   <g id="_2128638884944">
    <path class="fil0" d="M3210 1569l0 0c1241,0 2248,1006 2248,2248l0 0c0,1240 -1007,2247 -2248,2247l0 0c-1241,0 -2247,-1007 -2247,-2247l0 0c0,-1242 1006,-2248 2247,-2248z"/>
    <path class="fil1" d="M2565 2549c83,-82 216,-82 298,1 82,82 82,215 -1,297 -2,3 -818,800 -696,1398 26,127 76,215 143,266 35,27 77,45 121,52 53,9 110,9 171,-4 26,-5 52,-13 78,-21 -21,-45 -38,-91 -53,-139 -84,-266 -70,-555 80,-773 166,-243 401,-337 605,-317 92,8 178,40 251,94 74,54 133,129 169,220 74,193 44,461 -185,759 -77,100 -161,190 -249,267 36,24 76,44 116,56 110,33 241,18 384,-73 114,-72 207,-168 279,-280 126,-194 189,-432 190,-671 1,-238 -59,-474 -180,-664 -67,-106 -154,-197 -259,-266 -97,-63 -126,-193 -62,-290 63,-98 193,-125 290,-62 158,103 286,237 385,393 165,259 248,574 246,891 -2,316 -87,634 -258,897 -103,160 -238,300 -406,407 -259,164 -509,187 -730,120 -138,-42 -260,-119 -364,-217 -82,37 -164,64 -243,81 -114,22 -224,25 -328,6 -112,-21 -215,-64 -304,-133 -144,-110 -251,-281 -299,-516 -167,-822 809,-1776 811,-1779l0 0 0 0zm477 1765c59,-55 116,-118 170,-188 126,-163 154,-282 127,-351 -6,-15 -14,-26 -24,-33 -12,-9 -27,-14 -44,-15 -66,-6 -148,34 -218,136 -72,104 -73,259 -26,410 6,13 10,27 15,41l0 0z"/>
   </g>
   <g id="_2128638884240">
    <polygon class="fil2" points="10111,3079 10111,2803 8691,2803 8691,3079 9247,3079 9247,4827 9555,4827 9555,3079 "/>
    <path class="fil2" d="M13970 3815c0,-388 5,-614 -193,-813 -138,-138 -317,-213 -535,-213 -214,0 -390,75 -528,213 -202,199 -198,425 -198,813 0,391 -4,614 198,813 138,140 314,216 528,216 218,0 397,-76 535,-216 198,-199 193,-422 193,-813zm-306 0c0,406 -21,519 -119,629 -70,77 -183,122 -303,122 -119,0 -228,-45 -299,-122 -101,-110 -119,-223 -119,-629 0,-406 18,-519 119,-627 71,-75 180,-125 299,-125 120,0 233,50 303,125 98,108 119,221 119,627z"/>
    <polygon class="fil2" points="18763,2803 18439,2803 18084,4249 17681,2803 17434,2803 17028,4249 16673,2803 16352,2803 16878,4827 17147,4827 17556,3409 17965,4827 18234,4827 "/>
    <polygon class="fil2" points="22593,4827 21964,3791 22551,2803 22199,2803 21799,3528 21402,2803 21048,2803 21634,3791 21008,4827 21363,4827 21799,4050 22239,4827 "/>
    <polygon class="fil2" points="26854,4827 26854,2803 26549,2803 25969,4062 25379,2803 25074,2803 25074,4827 25379,4827 25379,3476 25856,4459 26085,4459 26549,3476 26549,4827 "/>
    <polygon class="fil2" points="30851,4827 30851,4552 29876,4552 29876,2803 29568,2803 29568,4827 "/>
   </g>
  </g>
  <rect class="fil3" width="31814" height="7633"/>
 </g>
</svg>
