<?xml version="1.0" encoding="UTF-8"?>
<!DOCTYPE svg PUBLIC "-//W3C//DTD SVG 1.0//EN" "http://www.w3.org/TR/2001/REC-SVG-20010904/DTD/svg10.dtd">
<!-- Creator: CorelDRAW X8 -->
<svg xmlns="http://www.w3.org/2000/svg" xml:space="preserve" width="239.439mm" height="210.524mm" version="1.0" style="shape-rendering:geometricPrecision; text-rendering:geometricPrecision; image-rendering:optimizeQuality; fill-rule:evenodd; clip-rule:evenodd"
viewBox="0 0 23944 21052"
 xmlns:xlink="http://www.w3.org/1999/xlink">
 <defs>
  <style type="text/css">
   <![CDATA[
    .fil0 {fill:#009B4C}
    .fil2 {fill:#332C2B;fill-rule:nonzero}
    .fil1 {fill:#FEFEFE;fill-rule:nonzero}
   ]]>
  </style>
 </defs>
 <g id="图层_x0020_1">
  <metadata id="CorelCorpID_0Corel-Layer"/>
  <g id="_1825922079232">
   <g id="_2128638884944">
    <path class="fil0" d="M11970 0l0 0c3909,0 7079,3170 7079,7079l0 0c0,3908 -3170,7078 -7079,7078l0 0c-3908,0 -7078,-3170 -7078,-7078l0 0c0,-3909 3170,-7079 7078,-7079z"/>
    <path class="fil1" d="M9939 3086c260,-257 680,-257 937,4 258,257 258,676 -3,934 -7,10 -2575,2521 -2192,4403 83,403 241,680 449,838 112,86 244,142 383,165 165,30 346,27 538,-13 82,-16 165,-39 247,-66 -66,-142 -122,-287 -168,-436 -264,-838 -221,-1749 251,-2436 525,-765 1264,-1062 1905,-1000 290,27 561,129 792,297 234,172 419,406 531,694 234,607 139,1452 -581,2389 -244,317 -508,598 -785,842 115,76 241,139 366,175 347,106 759,59 1208,-228 360,-228 654,-531 881,-884 396,-611 595,-1360 598,-2113 3,-749 -185,-1492 -568,-2089 -211,-334 -485,-621 -815,-839 -307,-198 -396,-607 -195,-914 198,-307 607,-393 914,-195 496,324 898,746 1212,1238 518,815 779,1809 775,2806 -6,997 -274,1997 -812,2825 -326,505 -752,944 -1280,1281 -816,518 -1604,591 -2301,379 -432,-132 -818,-373 -1145,-683 -258,116 -515,202 -766,254 -357,70 -706,80 -1033,20 -353,-66 -677,-201 -957,-419 -453,-347 -789,-885 -941,-1624 -525,-2591 2548,-5595 2555,-5605l0 0zm1502 5559c184,-172 366,-370 534,-591 396,-515 485,-888 400,-1106 -17,-46 -43,-82 -76,-105 -37,-27 -83,-43 -139,-47 -205,-19 -465,109 -686,429 -225,327 -228,816 -80,1291 17,43 30,86 47,129z"/>
   </g>
   <g id="_2128638884240">
    <polygon class="fil2" points="1535,19145 1535,18847 0,18847 0,19145 601,19145 601,21033 934,21033 934,19145 "/>
    <path class="fil2" d="M5704 19940c0,-419 6,-663 -208,-878 -149,-149 -343,-231 -578,-231 -231,0 -422,82 -571,231 -218,215 -214,459 -214,878 0,423 -4,663 214,878 149,152 340,234 571,234 235,0 429,-82 578,-234 214,-215 208,-455 208,-878zm-330 0c0,439 -23,561 -129,680 -76,83 -198,132 -327,132 -129,0 -247,-49 -323,-132 -109,-119 -129,-241 -129,-680 0,-439 20,-561 129,-677 76,-82 194,-135 323,-135 129,0 251,53 327,135 106,116 129,238 129,677z"/>
    <polygon class="fil2" points="10883,18847 10533,18847 10150,20409 9714,18847 9447,18847 9008,20409 8625,18847 8278,18847 8846,21033 9137,21033 9579,19501 10021,21033 10312,21033 "/>
    <polygon class="fil2" points="15022,21033 14342,19914 14976,18847 14596,18847 14164,19630 13735,18847 13352,18847 13985,19914 13309,21033 13692,21033 14164,20194 14639,21033 "/>
    <polygon class="fil2" points="19626,21033 19626,18847 19296,18847 18669,20207 18032,18847 17702,18847 17702,21033 18032,21033 18032,19574 18547,20636 18795,20636 19296,19574 19296,21033 "/>
    <polygon class="fil2" points="23944,21033 23944,20736 22891,20736 22891,18847 22558,18847 22558,21033 "/>
   </g>
  </g>
 </g>
</svg>
